<svg xmlns="http://www.w3.org/2000/svg" viewBox="0 0 22 22"><defs><clipPath id="a"><path d="M0 0h22v22H0z"/></clipPath></defs><g clip-path="url(#a)"><path data-name="Icon ionic-logo-facebook" d="M20.785 0H1.215A1.215 1.215 0 000 1.215v19.57A1.215 1.215 0 001.215 22H11v-8.708H8.37v-3.209H11V7.711a4.18 4.18 0 014.509-4.389c1.215 0 2.521.092 2.824.132v2.968h-2.022c-1.381 0-1.644.653-1.644 1.616v2.045h3.289l-.43 3.208h-2.859V22h6.119A1.215 1.215 0 0022 20.785V1.215A1.215 1.215 0 0020.785 0z" fill="#707070"/></g></svg>