<svg xmlns="http://www.w3.org/2000/svg" viewBox="0 0 22 22"><defs><clipPath id="a"><path d="M0 0h22v22H0z"/></clipPath></defs><g clip-path="url(#a)"><path data-name="Icon awesome-youtube-square" d="M9.173 8.35l4.675 2.657-4.675 2.66zM22 2.357v17.286A2.358 2.358 0 0119.643 22H2.357A2.358 2.358 0 010 19.643V2.357A2.358 2.358 0 012.357 0h17.286A2.358 2.358 0 0122 2.357zm-2.062 8.658a23.6 23.6 0 00-.373-4.331 2.241 2.241 0 00-1.581-1.591A52.733 52.733 0 0011 4.714a52.733 52.733 0 00-6.983.378 2.241 2.241 0 00-1.581 1.591 23.567 23.567 0 00-.373 4.331 23.6 23.6 0 00.373 4.336 2.209 2.209 0 001.581 1.567 53.42 53.42 0 006.983.369 52.733 52.733 0 006.983-.378 2.209 2.209 0 001.581-1.567 23.524 23.524 0 00.373-4.326z" fill="#707070"/></g></svg>