<svg xmlns="http://www.w3.org/2000/svg" viewBox="0 0 22 22"><defs><clipPath id="a"><path d="M0 0h22v22H0z"/></clipPath></defs><g clip-path="url(#a)"><path data-name="Icon metro-linkedin" d="M18.304 0H3.695a3.706 3.706 0 00-3.7 3.7v14.605a3.706 3.706 0 003.7 3.7h14.609a3.706 3.706 0 003.7-3.7V3.695A3.706 3.706 0 0018.304 0zM8.25 17.872H5.5V8.25h2.75zm-1.375-11A1.375 1.375 0 118.25 5.497a1.375 1.375 0 01-1.375 1.375zm11 11h-2.746v-5.5a1.375 1.375 0 10-2.75 0v5.5h-2.75V8.25h2.75v1.707c.567-.779 1.434-1.707 2.406-1.707a3.279 3.279 0 013.094 3.438z" fill="#707070"/></g></svg>