<svg width="34" height="24" xmlns="http://www.w3.org/2000/svg"><g fill="#034AD8" fill-rule="nonzero"><path d="M33.31 10.844c-.408-2.427-2.2-4.367-4.525-5.047.034-.239.068-.477.068-.715A4.535 4.535 0 0024.317.545c-1.27 0-2.405.522-3.233 1.361A1.576 1.576 0 0019.61.874c-.873 0-1.588.715-1.588 1.588 0 .873.601 1.259 1.86 1.86.17.08.34.17.5.261.101.057.192.113.294.17.068.046.147.09.215.136.046.023.08.057.125.08.386.26.737.544 1.078.85.022.012.034.034.056.046.136.124.273.26.397.408.034.034.068.08.102.113.148.16.284.33.409.5a8.359 8.359 0 011.701 5.058 8.432 8.432 0 01-1.701 5.058c-.125.17-.272.33-.409.5-.034.033-.068.079-.102.113-.124.136-.26.272-.397.408-.022.011-.034.034-.056.045-.34.307-.692.601-1.078.851-.045.023-.08.057-.125.08-.068.045-.136.09-.215.135-.09.057-.193.114-.295.17-.17.091-.329.182-.499.261-1.27.59-1.86.976-1.86 1.86 0 .874.715 1.588 1.588 1.588.68 0 1.247-.43 1.474-1.032a4.534 4.534 0 003.233 1.361 4.535 4.535 0 004.536-4.536c0-.25-.034-.477-.068-.715a6.427 6.427 0 004.526-5.047 6.651 6.651 0 000-2.2zM13.52 19.52c-.17-.08-.34-.17-.5-.26-.102-.058-.193-.114-.295-.17-.068-.046-.147-.092-.215-.137-.045-.023-.08-.057-.125-.08a8.664 8.664 0 01-1.077-.85c-.023-.011-.034-.034-.057-.045-.136-.137-.272-.261-.397-.409-.034-.034-.068-.08-.102-.113a5.606 5.606 0 01-.408-.5 8.359 8.359 0 01-1.702-5.058c0-1.894.647-3.652 1.702-5.058.124-.17.272-.329.408-.499.034-.034.068-.08.102-.113.125-.137.26-.273.397-.409.023-.011.034-.034.057-.045.34-.306.692-.601 1.077-.85.046-.023.08-.057.125-.08.068-.045.136-.09.215-.136.091-.057.193-.114.295-.17.17-.091.33-.182.5-.261 1.27-.59 1.86-.976 1.86-1.86 0-.874-.715-1.588-1.588-1.588-.681 0-1.248.43-1.475 1.032A4.534 4.534 0 009.085.5a4.535 4.535 0 00-4.537 4.537c0 .25.034.476.068.714a6.427 6.427 0 00-4.525 5.047C.034 11.15 0 11.501 0 11.864c0 .363.034.715.09 1.067.409 2.427 2.201 4.366 4.526 5.047-.034.238-.068.476-.068.714a4.535 4.535 0 004.537 4.537c1.27 0 2.404-.522 3.232-1.361a1.576 1.576 0 001.475 1.032c.873 0 1.587-.715 1.587-1.588 0-.817-.59-1.202-1.86-1.792z"/><path d="M21.651 11.91a4.942 4.942 0 00-4.945-4.945 4.942 4.942 0 00-4.945 4.945 4.942 4.942 0 004.945 4.945 4.942 4.942 0 004.945-4.945z"/></g></svg>