<svg width="1679" height="1134" viewBox="0 0 1679 1134" fill="none" xmlns="http://www.w3.org/2000/svg">
<rect width="1679" height="1134" fill="white"/>
<path fill-rule="evenodd" clip-rule="evenodd" d="M803.232 596.293C804.479 597.005 805.815 597.717 807.15 598.341C817.124 602.971 821.755 605.999 821.755 612.411C821.755 619.268 816.145 624.878 809.288 624.878C803.944 624.878 799.492 621.494 797.711 616.775C791.21 623.364 782.305 627.461 772.331 627.461C752.65 627.461 736.71 611.52 736.71 591.84C736.71 589.97 736.977 588.1 737.244 586.23C718.989 580.886 704.918 565.659 701.712 546.601C701.267 543.841 701 541.08 701 538.23C701 535.381 701.267 532.62 701.712 529.86C705.007 510.891 718.989 495.574 737.244 490.231C737.233 490.153 737.222 490.075 737.211 489.998C736.955 488.212 736.71 486.498 736.71 484.621C736.71 464.94 752.65 449 772.331 449C782.216 449 791.21 453.096 797.711 459.686C799.492 454.967 803.944 451.583 809.288 451.583C816.145 451.583 821.755 457.193 821.755 464.05C821.755 470.996 817.124 474.024 807.15 478.654C806.162 479.116 805.223 479.625 804.26 480.148C803.921 480.332 803.58 480.517 803.232 480.703L803.232 480.703C802.43 481.148 801.629 481.593 800.917 482.038C800.293 482.395 799.759 482.751 799.225 483.107C799.047 483.196 798.891 483.307 798.735 483.419C798.579 483.53 798.423 483.641 798.245 483.73C795.217 485.69 792.457 488.005 789.785 490.409C789.696 490.454 789.629 490.521 789.563 490.587C789.496 490.654 789.429 490.721 789.34 490.766C788.271 491.834 787.203 492.903 786.223 493.971C786.089 494.105 785.956 494.261 785.822 494.417C785.689 494.573 785.555 494.728 785.422 494.862C785.001 495.388 784.567 495.9 784.135 496.409C783.469 497.193 782.81 497.97 782.216 498.78C773.934 509.823 768.858 523.626 768.858 538.498C768.858 553.369 773.845 567.172 782.216 578.215C783.195 579.551 784.264 580.886 785.422 582.133C785.555 582.267 785.689 582.423 785.822 582.579C785.956 582.734 786.09 582.89 786.223 583.024C786.956 583.89 787.74 584.657 788.535 585.436C788.803 585.698 789.071 585.961 789.34 586.23C789.429 586.274 789.496 586.341 789.563 586.408C789.629 586.475 789.696 586.541 789.785 586.586C792.457 588.99 795.217 591.306 798.245 593.265C798.423 593.354 798.579 593.465 798.735 593.576C798.891 593.688 799.047 593.799 799.225 593.888C799.492 594.066 799.781 594.244 800.071 594.422C800.36 594.601 800.65 594.779 800.917 594.957C801.317 595.179 801.696 595.402 802.074 595.625C802.453 595.847 802.831 596.07 803.232 596.293ZM927.014 490.587C945.27 495.931 959.34 511.158 962.546 530.216C962.992 532.887 963.259 535.737 963.259 539.121C963.259 541.971 962.992 544.731 962.546 547.492C959.251 566.46 945.27 581.777 927.014 587.12L927.048 587.354C927.303 589.139 927.549 590.853 927.549 592.73C927.549 612.411 911.608 628.351 891.928 628.351C882.043 628.351 873.049 624.255 866.548 617.665C864.767 622.385 860.314 625.769 854.971 625.769C848.114 625.769 842.504 620.159 842.504 613.301C842.504 606.355 847.134 603.328 857.108 598.697C858.096 598.236 859.036 597.726 859.999 597.203C860.337 597.02 860.679 596.834 861.027 596.649C861.828 596.203 862.63 595.758 863.342 595.313C863.965 594.957 864.5 594.601 865.034 594.244C865.212 594.155 865.368 594.044 865.524 593.933C865.68 593.821 865.835 593.71 866.014 593.621C869.041 591.662 871.802 589.346 874.474 586.942C874.563 586.897 874.629 586.831 874.696 586.764C874.763 586.697 874.83 586.63 874.919 586.586L874.919 586.585C875.988 585.517 877.056 584.448 878.036 583.38C878.169 583.246 878.303 583.09 878.436 582.935C878.57 582.779 878.704 582.623 878.837 582.489C879.258 581.964 879.692 581.452 880.124 580.943C880.789 580.159 881.449 579.381 882.043 578.571C890.325 567.529 895.401 553.726 895.401 538.854C895.401 523.982 890.414 510.179 882.043 499.136C881.063 497.801 879.995 496.465 878.837 495.218C878.704 495.085 878.57 494.929 878.436 494.773C878.303 494.617 878.169 494.461 878.036 494.328C877.056 493.17 875.987 492.101 874.919 491.122C874.83 491.077 874.763 491.01 874.696 490.944C874.629 490.877 874.563 490.81 874.474 490.766C871.802 488.361 869.041 486.135 866.014 484.087C865.835 483.998 865.68 483.886 865.524 483.775C865.368 483.664 865.212 483.552 865.034 483.463C864.767 483.285 864.477 483.107 864.188 482.929C863.899 482.751 863.609 482.573 863.342 482.395C862.941 482.172 862.563 481.949 862.184 481.727C861.806 481.504 861.427 481.281 861.027 481.059C859.78 480.346 858.444 479.634 857.108 479.011C847.224 474.291 842.504 471.263 842.504 464.406C842.504 457.549 848.114 451.939 854.971 451.939C860.314 451.939 864.767 455.323 866.548 460.042C873.049 453.453 881.954 449.356 891.928 449.356C911.608 449.356 927.549 465.297 927.549 484.977C927.549 486.847 927.282 488.717 927.014 490.587Z" fill="#034AD8"/>
<path d="M871 538.587C871 517.125 853.635 499.76 832.173 499.76C810.712 499.76 793.347 517.125 793.347 538.587C793.347 560.049 810.712 577.414 832.173 577.414C853.635 577.414 871 560.049 871 538.587Z" fill="#034AD8"/>
<path fill-rule="evenodd" clip-rule="evenodd" d="M1171.62 588.249L1191.74 525.347H1151.51L1171.62 588.249H1171.62Z" fill="#E24329"/>
<path fill-rule="evenodd" clip-rule="evenodd" d="M1171.62 588.249L1151.51 525.347H1123.32L1171.62 588.248L1171.62 588.249Z" fill="#FC6D26"/>
<path fill-rule="evenodd" clip-rule="evenodd" d="M1123.32 525.347L1117.2 544.462C1116.65 546.206 1117.26 548.116 1118.72 549.193L1171.62 588.248L1123.32 525.347V525.347Z" fill="#FCA326"/>
<path fill-rule="evenodd" clip-rule="evenodd" d="M1123.32 525.347H1151.51L1139.39 487.462C1138.77 485.513 1136.05 485.513 1135.43 487.462L1123.32 525.347H1123.32Z" fill="#E24329"/>
<path fill-rule="evenodd" clip-rule="evenodd" d="M1171.62 588.249L1191.74 525.347H1219.93L1171.62 588.248L1171.62 588.249Z" fill="#FC6D26"/>
<path fill-rule="evenodd" clip-rule="evenodd" d="M1219.93 525.347L1226.04 544.462C1226.6 546.206 1225.99 548.116 1224.53 549.193L1171.62 588.248L1219.93 525.347V525.347Z" fill="#FCA326"/>
<path fill-rule="evenodd" clip-rule="evenodd" d="M1219.93 525.347H1191.74L1203.85 487.462C1204.47 485.513 1207.19 485.513 1207.81 487.462L1219.93 525.347H1219.93Z" fill="#E24329"/>
<path d="M1116.83 724C1116.27 723.993 1115.73 724.107 1115.23 724.333C1114.72 724.56 1114.28 724.893 1113.92 725.311C1113.56 725.728 1113.29 726.219 1113.14 726.75C1112.99 727.28 1112.96 727.837 1113.05 728.381L1129.08 825.695C1129.28 826.886 1129.9 827.968 1130.81 828.752C1131.73 829.536 1132.9 829.971 1134.11 829.981H1211.02C1211.93 829.993 1212.81 829.679 1213.5 829.097C1214.2 828.514 1214.66 827.703 1214.8 826.809L1230.87 728.419C1230.96 727.875 1230.93 727.318 1230.78 726.787C1230.63 726.257 1230.37 725.766 1230.01 725.348C1229.65 724.931 1229.2 724.597 1228.7 724.371C1228.19 724.145 1227.65 724.031 1227.1 724.038L1116.83 724ZM1184.34 794.333H1159.79L1153.14 759.629H1190.29L1184.34 794.333Z" fill="#2684FF"/>
<path d="M1225.74 759.629H1190.29L1184.34 794.333H1159.79L1130.8 828.753C1131.72 829.548 1132.89 829.989 1134.11 830H1211.04C1211.95 830.011 1212.83 829.697 1213.52 829.115C1214.21 828.533 1214.68 827.721 1214.82 826.828L1225.74 759.629Z" fill="url(#paint0_linear)"/>
<circle cx="239" cy="917" r="122" fill="#B9E5A0"/>
<circle cx="467.5" cy="688.5" r="104.5" fill="#E6F7FF"/>
<path fill-rule="evenodd" clip-rule="evenodd" d="M1171.5 262C1141.94 262 1118 285.941 1118 315.5C1118 339.174 1133.31 359.169 1154.58 366.258C1157.26 366.726 1158.26 365.121 1158.26 363.717C1158.26 362.446 1158.19 358.233 1158.19 353.753C1144.75 356.227 1141.27 350.476 1140.2 347.466C1139.6 345.928 1136.99 341.18 1134.72 339.909C1132.85 338.906 1130.17 336.432 1134.65 336.365C1138.87 336.298 1141.87 340.244 1142.88 341.849C1147.69 349.941 1155.38 347.667 1158.46 346.263C1158.93 342.785 1160.33 340.444 1161.87 339.107C1149.97 337.769 1137.53 333.155 1137.53 312.691C1137.53 306.873 1139.6 302.058 1143.01 298.313C1142.48 296.976 1140.6 291.492 1143.55 284.136C1143.55 284.136 1148.03 282.731 1158.26 289.619C1162.54 288.416 1167.09 287.814 1171.63 287.814C1176.18 287.814 1180.73 288.416 1185.01 289.619C1195.24 282.664 1199.72 284.136 1199.72 284.136C1202.66 291.492 1200.79 296.976 1200.26 298.313C1203.67 302.058 1205.74 306.806 1205.74 312.691C1205.74 333.222 1193.23 337.769 1181.33 339.107C1183.27 340.779 1184.94 343.989 1184.94 349.004C1184.94 356.16 1184.88 361.911 1184.88 363.717C1184.88 365.121 1185.88 366.793 1188.55 366.258C1199.17 362.673 1208.4 355.847 1214.94 346.741C1221.48 337.636 1225 326.71 1225 315.5C1225 285.941 1201.06 262 1171.5 262Z" fill="black"/>
<ellipse cx="421.172" cy="182.887" rx="107.172" ry="104.887" fill="#FFE4A3"/>
<path d="M340.008 197.242H343.608V175.402L354.408 189.442L365.208 175.402V197.242H368.808V169.242H365.608L354.408 183.842L343.208 169.242H340.008V197.242Z" fill="#585858"/>
<path d="M381.195 197.642C385.395 197.642 387.395 194.642 387.395 194.642V197.242H390.795V185.042C390.795 180.842 387.595 177.642 382.995 177.642C378.195 177.642 375.595 181.242 375.595 181.242L377.795 183.442C377.795 183.442 379.795 180.842 382.995 180.842C385.595 180.842 387.395 182.642 387.395 185.042L380.195 186.242C376.595 186.842 374.595 188.842 374.595 192.042C374.595 195.042 377.195 197.642 381.195 197.642ZM381.595 194.642C379.275 194.642 377.995 193.362 377.995 191.842C377.995 190.442 379.195 189.162 381.195 188.842L387.395 187.842V188.642C387.395 192.042 384.795 194.642 381.595 194.642Z" fill="#585858"/>
<path d="M396.777 197.242H400.177V187.042C400.177 183.442 402.577 181.042 405.777 181.042C406.577 181.042 407.177 181.242 407.177 181.242V177.642H406.377C402.177 177.642 400.177 180.642 400.177 180.642V178.042H396.777V197.242Z" fill="#585858"/>
<path d="M411.195 197.242H414.595V191.842L417.995 188.242L424.395 197.242H428.395L420.195 185.842L427.595 178.042H423.395L414.595 187.442V169.242H411.195V197.242Z" fill="#585858"/>
<path d="M439.991 197.642C445.391 197.642 447.991 193.842 447.991 193.842L445.791 191.642C445.791 191.642 443.791 194.442 439.991 194.442C436.591 194.442 433.991 191.842 433.591 188.842H448.791C448.791 188.842 448.991 188.042 448.991 187.042C448.991 181.642 444.991 177.642 439.591 177.642C434.391 177.642 429.991 182.042 429.991 187.642C429.991 193.242 434.391 197.642 439.991 197.642ZM433.591 185.842C434.191 183.042 436.391 180.842 439.591 180.842C442.791 180.842 444.991 183.042 445.591 185.842H433.591Z" fill="#585858"/>
<path d="M461.408 197.642C463.008 197.642 464.208 197.042 464.208 197.042V193.842C464.208 193.842 463.008 194.442 461.688 194.442C460.008 194.442 459.008 193.442 459.008 191.442V181.242H463.408V178.042H459.008V171.642H455.808V176.042C455.808 177.482 455.208 178.042 454.208 178.042H452.008V181.242H455.608V191.642C455.608 195.642 457.608 197.642 461.408 197.642Z" fill="#585858"/>
<path d="M477.413 197.642C482.813 197.642 485.413 193.842 485.413 193.842L483.213 191.642C483.213 191.642 481.213 194.442 477.413 194.442C474.013 194.442 471.412 191.842 471.012 188.842H486.213C486.213 188.842 486.413 188.042 486.413 187.042C486.413 181.642 482.412 177.642 477.012 177.642C471.812 177.642 467.413 182.042 467.413 187.642C467.413 193.242 471.813 197.642 477.413 197.642ZM471.012 185.842C471.612 183.042 473.812 180.842 477.012 180.842C480.212 180.842 482.412 183.042 483.012 185.842H471.012Z" fill="#585858"/>
<path d="M491.23 197.242H494.63V187.042C494.63 183.442 497.03 181.042 500.23 181.042C501.03 181.042 501.63 181.242 501.63 181.242V177.642H500.83C496.63 177.642 494.63 180.642 494.63 180.642V178.042H491.23V197.242Z" fill="#585858"/>
<circle cx="182" cy="475" r="109" fill="#FDF5DB"/>
<path d="M96.6 485.8C104.2 485.8 108.2 480.2 108.2 480.2L105.8 477.8C105.8 477.8 102.8 482.4 96.6 482.4C90.4 482.4 85.6 477.6 85.6 471.4C85.6 465.2 90.4 460.4 96.6 460.4C102.8 460.4 105.6 465 105.6 465L108 462.6C108 462.6 104.2 457 96.6 457C88.4 457 82 463.4 82 471.4C82 479.4 88.4 485.8 96.6 485.8Z" fill="#585858"/>
<path d="M121.009 485.8C126.409 485.8 130.809 481.4 130.809 475.8C130.809 470.2 126.409 465.8 121.009 465.8C115.609 465.8 111.209 470.2 111.209 475.8C111.209 481.4 115.609 485.8 121.009 485.8ZM121.009 482.6C117.409 482.6 114.609 479.8 114.609 475.8C114.609 471.8 117.409 469 121.009 469C124.609 469 127.409 471.8 127.409 475.8C127.409 479.8 124.609 482.6 121.009 482.6Z" fill="#585858"/>
<path d="M135.612 493.8H139.013V482.6C139.013 482.6 141.012 485.8 145.612 485.8C150.612 485.8 154.812 481.6 154.812 475.8C154.812 470 150.612 465.8 145.612 465.8C141.012 465.8 139.013 469 139.013 469V466.2H135.612V493.8ZM145.212 482.6C141.812 482.6 139.013 479.8 139.013 475.8C139.013 471.8 141.812 469 145.212 469C148.612 469 151.413 471.8 151.413 475.8C151.413 479.8 148.612 482.6 145.212 482.6Z" fill="#585858"/>
<path d="M160.997 493.8C163.997 493.8 165.797 492 167.397 488L175.997 466.2H172.397L166.597 481L160.797 466.2H157.197L164.997 485.4L163.997 487.8C163.237 489.6 162.197 490.6 160.397 490.6C159.197 490.6 158.197 490.2 158.197 490.2V493.4C158.197 493.4 159.397 493.8 160.997 493.8Z" fill="#585858"/>
<path d="M183.797 485.4H186.997L191.597 471.6L196.197 485.4H199.397L205.997 466.2H202.397L197.797 480.2L193.197 466.2H189.997L185.397 480.2L180.797 466.2H177.197L183.797 485.4Z" fill="#585858"/>
<path d="M209.597 485.4H212.997V475.2C212.997 471.6 215.397 469.2 218.597 469.2C219.397 469.2 219.997 469.4 219.997 469.4V465.8H219.197C214.997 465.8 212.997 468.8 212.997 468.8V466.2H209.597V485.4Z" fill="#585858"/>
<path d="M224.016 485.4H227.416V466.2H224.016V485.4ZM225.616 462.2C226.816 462.2 227.816 461.2 227.816 460C227.816 458.8 226.816 457.8 225.616 457.8C224.416 457.8 223.416 458.8 223.416 460C223.416 461.2 224.416 462.2 225.616 462.2Z" fill="#585858"/>
<path d="M241.22 485.8C242.82 485.8 244.02 485.2 244.02 485.2V482C244.02 482 242.82 482.6 241.5 482.6C239.82 482.6 238.82 481.6 238.82 479.6V469.4H243.22V466.2H238.82V459.8H235.62V464.2C235.62 465.64 235.02 466.2 234.02 466.2H231.82V469.4H235.42V479.8C235.42 483.8 237.42 485.8 241.22 485.8Z" fill="#585858"/>
<path d="M257.225 485.8C262.625 485.8 265.225 482 265.225 482L263.025 479.8C263.025 479.8 261.025 482.6 257.225 482.6C253.825 482.6 251.225 480 250.825 477H266.025C266.025 477 266.225 476.2 266.225 475.2C266.225 469.8 262.225 465.8 256.825 465.8C251.625 465.8 247.225 470.2 247.225 475.8C247.225 481.4 251.625 485.8 257.225 485.8ZM250.825 474C251.425 471.2 253.625 469 256.825 469C260.025 469 262.225 471.2 262.825 474H250.825Z" fill="#585858"/>
<path d="M271.042 485.4H274.442V475.2C274.442 471.6 276.842 469.2 280.042 469.2C280.842 469.2 281.442 469.4 281.442 469.4V465.8H280.642C276.442 465.8 274.442 468.8 274.442 468.8V466.2H271.042V485.4Z" fill="#585858"/>
<path d="M200.6 931.8C208.2 931.8 212.2 926.2 212.2 926.2L209.8 923.8C209.8 923.8 206.8 928.4 200.6 928.4C194.4 928.4 189.6 923.6 189.6 917.4C189.6 911.2 194.4 906.4 200.6 906.4C206.8 906.4 209.6 911 209.6 911L212 908.6C212 908.6 208.2 903 200.6 903C192.4 903 186 909.4 186 917.4C186 925.4 192.4 931.8 200.6 931.8Z" fill="#585858"/>
<path d="M217 931.4H220.4V903.4H217V931.4Z" fill="#585858"/>
<path d="M226.805 931.4H230.205V912.2H226.805V931.4ZM228.405 908.2C229.605 908.2 230.605 907.2 230.605 906C230.605 904.8 229.605 903.8 228.405 903.8C227.205 903.8 226.205 904.8 226.205 906C226.205 907.2 227.205 908.2 228.405 908.2Z" fill="#585858"/>
<path d="M245.209 931.8C250.609 931.8 253.209 928 253.209 928L251.009 925.8C251.009 925.8 249.009 928.6 245.209 928.6C241.809 928.6 239.209 926 238.809 923H254.009C254.009 923 254.209 922.2 254.209 921.2C254.209 915.8 250.209 911.8 244.809 911.8C239.609 911.8 235.209 916.2 235.209 921.8C235.209 927.4 239.609 931.8 245.209 931.8ZM238.809 920C239.409 917.2 241.609 915 244.809 915C248.009 915 250.209 917.2 250.809 920H238.809Z" fill="#585858"/>
<path d="M259.027 931.4H262.427V921C262.427 917.4 264.827 915 268.027 915C270.827 915 272.827 917 272.827 920.2V931.4H276.227V920.2C276.227 915 273.027 911.8 268.507 911.8C264.427 911.8 262.427 915 262.427 915V912.2H259.027V931.4Z" fill="#585858"/>
<path d="M289.439 931.8C291.039 931.8 292.239 931.2 292.239 931.2V928C292.239 928 291.039 928.6 289.719 928.6C288.039 928.6 287.039 927.6 287.039 925.6V915.4H291.439V912.2H287.039V905.8H283.839V910.2C283.839 911.64 283.239 912.2 282.239 912.2H280.039V915.4H283.639V925.8C283.639 929.8 285.639 931.8 289.439 931.8Z" fill="#585858"/>
<path d="M403 676H406.6V666H413.8C419 666 423 662 423 657C423 652 419 648 413.8 648H403V676ZM406.6 662.6V651.4H413.8C417 651.4 419.4 653.8 419.4 657C419.4 660.2 417 662.6 413.8 662.6H406.6Z" fill="#585858"/>
<path d="M427.425 676H430.825V665.8C430.825 662.2 433.225 659.8 436.425 659.8C437.225 659.8 437.825 660 437.825 660V656.4H437.025C432.825 656.4 430.825 659.4 430.825 659.4V656.8H427.425V676Z" fill="#585858"/>
<path d="M449.853 676.4C455.253 676.4 459.653 672 459.653 666.4C459.653 660.8 455.253 656.4 449.853 656.4C444.453 656.4 440.053 660.8 440.053 666.4C440.053 672 444.453 676.4 449.853 676.4ZM449.853 673.2C446.253 673.2 443.453 670.4 443.453 666.4C443.453 662.4 446.253 659.6 449.853 659.6C453.453 659.6 456.253 662.4 456.253 666.4C456.253 670.4 453.453 673.2 449.853 673.2Z" fill="#585858"/>
<path d="M462.456 684.4C466.056 684.4 468.056 682.4 468.056 678.4V656.8H464.656V678.2C464.656 680.2 463.656 681.2 462.056 681.2C460.856 681.2 459.656 680.6 459.656 680.6V683.8C459.656 683.8 460.856 684.4 462.456 684.4ZM466.256 652.8C467.456 652.8 468.456 651.8 468.456 650.6C468.456 649.4 467.456 648.4 466.256 648.4C465.056 648.4 464.056 649.4 464.056 650.6C464.056 651.8 465.056 652.8 466.256 652.8Z" fill="#585858"/>
<path d="M483.061 676.4C488.461 676.4 491.061 672.6 491.061 672.6L488.861 670.4C488.861 670.4 486.861 673.2 483.061 673.2C479.661 673.2 477.061 670.6 476.661 667.6H491.861C491.861 667.6 492.061 666.8 492.061 665.8C492.061 660.4 488.061 656.4 482.661 656.4C477.461 656.4 473.061 660.8 473.061 666.4C473.061 672 477.461 676.4 483.061 676.4ZM476.661 664.6C477.261 661.8 479.461 659.6 482.661 659.6C485.861 659.6 488.061 661.8 488.661 664.6H476.661Z" fill="#585858"/>
<path d="M505.478 676.4C510.678 676.4 513.678 672.4 513.678 672.4L511.278 670.2C511.278 670.2 509.078 673.2 505.478 673.2C502.078 673.2 499.078 670.2 499.078 666.4C499.078 662.6 502.078 659.6 505.478 659.6C509.078 659.6 511.078 662.6 511.078 662.6L513.478 660.2C513.478 660.2 510.678 656.4 505.478 656.4C500.078 656.4 495.678 660.8 495.678 666.4C495.678 672 500.078 676.4 505.478 676.4Z" fill="#585858"/>
<path d="M525.494 676.4C527.094 676.4 528.294 675.8 528.294 675.8V672.6C528.294 672.6 527.094 673.2 525.774 673.2C524.094 673.2 523.094 672.2 523.094 670.2V660H527.494V656.8H523.094V650.4H519.894V654.8C519.894 656.24 519.294 656.8 518.294 656.8H516.094V660H519.694V670.4C519.694 674.4 521.694 676.4 525.494 676.4Z" fill="#585858"/>
<path d="M423.723 727H441.323V723.6H427.323V699H423.723V727Z" fill="#585858"/>
<path d="M453.549 727.4C458.949 727.4 461.549 723.6 461.549 723.6L459.349 721.4C459.349 721.4 457.349 724.2 453.549 724.2C450.149 724.2 447.549 721.6 447.149 718.6H462.349C462.349 718.6 462.549 717.8 462.549 716.8C462.549 711.4 458.549 707.4 453.149 707.4C447.949 707.4 443.549 711.8 443.549 717.4C443.549 723 447.949 727.4 453.549 727.4ZM447.149 715.6C447.749 712.8 449.949 710.6 453.149 710.6C456.349 710.6 458.549 712.8 459.149 715.6H447.149Z" fill="#585858"/>
<path d="M472.566 727.4C476.766 727.4 478.766 724.4 478.766 724.4V727H482.166V714.8C482.166 710.6 478.966 707.4 474.366 707.4C469.566 707.4 466.966 711 466.966 711L469.166 713.2C469.166 713.2 471.166 710.6 474.366 710.6C476.966 710.6 478.766 712.4 478.766 714.8L471.566 716C467.966 716.6 465.966 718.6 465.966 721.8C465.966 724.8 468.566 727.4 472.566 727.4ZM472.966 724.4C470.646 724.4 469.366 723.12 469.366 721.6C469.366 720.2 470.566 718.92 472.566 718.6L478.766 717.6V718.4C478.766 721.8 476.166 724.4 472.966 724.4Z" fill="#585858"/>
<path d="M496.148 727.4C500.668 727.4 502.748 724.2 502.748 724.2V727H506.148V699H502.748V710.6C502.748 710.6 500.748 707.4 496.148 707.4C491.148 707.4 486.948 711.6 486.948 717.4C486.948 723.2 491.148 727.4 496.148 727.4ZM496.548 724.2C493.148 724.2 490.348 721.4 490.348 717.4C490.348 713.4 493.148 710.6 496.548 710.6C499.948 710.6 502.748 713.4 502.748 717.4C502.748 721.4 499.948 724.2 496.548 724.2Z" fill="#585858"/>
<path d="M556 183H742C759.673 183 774 197.327 774 215V437" stroke="#E8E8E8" stroke-width="7"/>
<path d="M594 714H742C759.673 714 774 699.673 774 682V641" stroke="#E8E8E8" stroke-width="7"/>
<path d="M310 477H541.406C559.079 477 573.406 462.673 573.406 445V435C573.406 417.327 587.733 403 605.406 403H774" stroke="#E8E8E8" stroke-width="7"/>
<path d="M402 935H742C759.673 935 774 920.673 774 903V685" stroke="#E8E8E8" stroke-width="7"/>
<path d="M1104 311H910C892.327 311 878 325.327 878 343V429" stroke="#E8E8E8" stroke-width="7"/>
<path d="M882 643V745C882 762.673 896.327 777 914 777H1110" stroke="#E8E8E8" stroke-width="7"/>
<path d="M1092 547H978" stroke="#E8E8E8" stroke-width="7"/>
<path d="M1359 547H1270" stroke="#E8E8E8" stroke-width="7"/>
<path d="M1248 315H1448C1465.67 315 1480 329.327 1480 347V419" stroke="#E8E8E8" stroke-width="7"/>
<path d="M1248 778H1448C1465.67 778 1480 763.673 1480 746V661" stroke="#E8E8E8" stroke-width="7"/>
<path d="M1476 642.648C1535.09 642.648 1583 594.598 1583 535.324C1583 476.051 1535.09 428 1476 428C1416.91 428 1369 476.051 1369 535.324C1369 594.598 1416.91 642.648 1476 642.648Z" fill="#E5CAE8"/>
<path d="M1442.48 522H1446.08L1453.08 499.6L1460.08 522H1463.68L1472.88 494H1469.08L1461.88 516.4L1454.88 494H1451.28L1444.28 516.4L1437.08 494H1433.28L1442.48 522Z" fill="#585858"/>
<path d="M1483.69 522.4C1489.09 522.4 1491.69 518.6 1491.69 518.6L1489.49 516.4C1489.49 516.4 1487.49 519.2 1483.69 519.2C1480.29 519.2 1477.69 516.6 1477.29 513.6H1492.49C1492.49 513.6 1492.69 512.8 1492.69 511.8C1492.69 506.4 1488.69 502.4 1483.29 502.4C1478.09 502.4 1473.69 506.8 1473.69 512.4C1473.69 518 1478.09 522.4 1483.69 522.4ZM1477.29 510.6C1477.89 507.8 1480.09 505.6 1483.29 505.6C1486.49 505.6 1488.69 507.8 1489.29 510.6H1477.29Z" fill="#585858"/>
<path d="M1507.7 522.4C1512.7 522.4 1516.9 518.2 1516.9 512.4C1516.9 506.6 1512.7 502.4 1507.7 502.4C1503.1 502.4 1501.1 505.6 1501.1 505.6V494H1497.7V522H1501.1V519.2C1501.1 519.2 1503.18 522.4 1507.7 522.4ZM1507.3 519.2C1503.9 519.2 1501.1 516.4 1501.1 512.4C1501.1 508.4 1503.9 505.6 1507.3 505.6C1510.7 505.6 1513.5 508.4 1513.5 512.4C1513.5 516.4 1510.7 519.2 1507.3 519.2Z" fill="#585858"/>
<path d="M1385.17 573H1394.17C1402.37 573 1408.77 566.6 1408.77 559C1408.77 551.4 1402.37 545 1394.17 545H1385.17V573ZM1388.77 569.6V548.4H1394.17C1400.37 548.4 1405.17 553.2 1405.17 559C1405.17 564.8 1400.37 569.6 1394.17 569.6H1388.77Z" fill="#585858"/>
<path d="M1422.77 573.4C1428.17 573.4 1430.77 569.6 1430.77 569.6L1428.57 567.4C1428.57 567.4 1426.57 570.2 1422.77 570.2C1419.37 570.2 1416.77 567.6 1416.37 564.6H1431.57C1431.57 564.6 1431.77 563.8 1431.77 562.8C1431.77 557.4 1427.77 553.4 1422.37 553.4C1417.17 553.4 1412.77 557.8 1412.77 563.4C1412.77 569 1417.17 573.4 1422.77 573.4ZM1416.37 561.6C1416.97 558.8 1419.17 556.6 1422.37 556.6C1425.57 556.6 1427.77 558.8 1428.37 561.6H1416.37Z" fill="#585858"/>
<path d="M1441.79 573H1445.39L1452.99 553.8H1449.39L1443.59 568.6L1437.79 553.8H1434.19L1441.79 573Z" fill="#585858"/>
<path d="M1465.39 573.4C1470.79 573.4 1473.39 569.6 1473.39 569.6L1471.19 567.4C1471.19 567.4 1469.19 570.2 1465.39 570.2C1461.99 570.2 1459.39 567.6 1458.99 564.6H1474.19C1474.19 564.6 1474.39 563.8 1474.39 562.8C1474.39 557.4 1470.39 553.4 1464.99 553.4C1459.79 553.4 1455.39 557.8 1455.39 563.4C1455.39 569 1459.79 573.4 1465.39 573.4ZM1458.99 561.6C1459.59 558.8 1461.79 556.6 1464.99 556.6C1468.19 556.6 1470.39 558.8 1470.99 561.6H1458.99Z" fill="#585858"/>
<path d="M1479.4 573H1482.8V545H1479.4V573Z" fill="#585858"/>
<path d="M1497.61 573.4C1503.01 573.4 1507.41 569 1507.41 563.4C1507.41 557.8 1503.01 553.4 1497.61 553.4C1492.21 553.4 1487.81 557.8 1487.81 563.4C1487.81 569 1492.21 573.4 1497.61 573.4ZM1497.61 570.2C1494.01 570.2 1491.21 567.4 1491.21 563.4C1491.21 559.4 1494.01 556.6 1497.61 556.6C1501.21 556.6 1504.01 559.4 1504.01 563.4C1504.01 567.4 1501.21 570.2 1497.61 570.2Z" fill="#585858"/>
<path d="M1512.21 581.4H1515.61V570.2C1515.61 570.2 1517.61 573.4 1522.21 573.4C1527.21 573.4 1531.41 569.2 1531.41 563.4C1531.41 557.6 1527.21 553.4 1522.21 553.4C1517.61 553.4 1515.61 556.6 1515.61 556.6V553.8H1512.21V581.4ZM1521.81 570.2C1518.41 570.2 1515.61 567.4 1515.61 563.4C1515.61 559.4 1518.41 556.6 1521.81 556.6C1525.21 556.6 1528.01 559.4 1528.01 563.4C1528.01 567.4 1525.21 570.2 1521.81 570.2Z" fill="#585858"/>
<path d="M1545 573.4C1550.4 573.4 1553 569.6 1553 569.6L1550.8 567.4C1550.8 567.4 1548.8 570.2 1545 570.2C1541.6 570.2 1539 567.6 1538.6 564.6H1553.8C1553.8 564.6 1554 563.8 1554 562.8C1554 557.4 1550 553.4 1544.6 553.4C1539.4 553.4 1535 557.8 1535 563.4C1535 569 1539.4 573.4 1545 573.4ZM1538.6 561.6C1539.2 558.8 1541.4 556.6 1544.6 556.6C1547.8 556.6 1550 558.8 1550.6 561.6H1538.6Z" fill="#585858"/>
<path d="M1558.81 573H1562.21V562.8C1562.21 559.2 1564.61 556.8 1567.81 556.8C1568.61 556.8 1569.21 557 1569.21 557V553.4H1568.41C1564.21 553.4 1562.21 556.4 1562.21 556.4V553.8H1558.81V573Z" fill="#585858"/>
<defs>
<linearGradient id="paint0_linear" x1="1233.93" y1="769.334" x2="1175.36" y2="815.076" gradientUnits="userSpaceOnUse">
<stop offset="0.18" stop-color="#0052CC"/>
<stop offset="1" stop-color="#2684FF"/>
</linearGradient>
</defs>
</svg>
